<svg viewBox="0 0 34 33" fill="none" xmlns="http://www.w3.org/2000/svg">
<path d="M18.4547 3.3454C19.9044 5.04106 20.8995 7.16105 21.2186 9.53861C22.0815 15.9844 17.5737 21.9927 11.1351 22.9817C11.0641 22.9916 10.993 23.0015 10.9236 23.0115C6.5728 23.6025 5.75125 29.5547 9.76974 31.3197C12.4576 32.5002 15.4925 32.984 18.6118 32.5729C27.7612 31.3692 34.1254 23.0791 32.9038 13.9487C31.9781 7.03392 26.9199 1.70422 20.5607 0.0779056C20.5408 0.0713012 20.5193 0.0663481 20.4995 0.0613948C18.5853 -0.400909 17.1769 1.85117 18.4547 3.3454Z" fill="white" fill-opacity="0.2"/>
<path d="M26.6471 7.83469C26.5743 10.0637 25.8801 12.2976 24.5114 14.2706C20.8003 19.6152 13.4146 21.0268 7.98776 17.4291C7.92825 17.3895 7.86874 17.3499 7.81088 17.3086C4.19572 14.8204 -0.426127 18.6674 1.35418 22.6746C2.54435 25.3543 4.46021 27.7517 7.04388 29.5448C14.6197 34.8068 24.9164 32.9576 30.1746 25.3857C34.1551 19.6531 34.0113 12.3124 30.4094 6.83578C30.3978 6.81762 30.3862 6.79946 30.373 6.7813C29.2721 5.15333 26.7099 5.87155 26.6471 7.83469Z" fill="white" fill-opacity="0.4"/>
<path d="M29.6737 16.6614C28.1166 18.2597 26.0949 19.4451 23.7526 19.9817C17.4033 21.438 10.9913 17.5167 9.40768 11.2095C9.39115 11.1402 9.37462 11.0708 9.35809 11.0015C8.36462 6.7318 2.35258 6.46928 0.964036 10.6267C0.03669 13.4088 -0.163325 16.4682 0.53425 19.531C2.58565 28.5129 11.4442 34.0688 20.4399 32.0049C27.2504 30.4447 32.0971 24.9218 33.1302 18.4512C33.1335 18.4297 33.1368 18.4083 33.1385 18.3868C33.4228 16.4435 31.0457 15.2514 29.6737 16.6614Z" fill="white" fill-opacity="0.6"/>
<path d="M25.9561 25.2207C23.7279 25.3561 21.4335 24.8723 19.3391 23.6951C13.6626 20.5036 11.5699 13.2933 14.6544 7.56567C14.6875 7.50292 14.7222 7.44018 14.7569 7.37909C16.9042 3.55518 12.6361 -0.681496 8.80603 1.45996C6.24219 2.89145 3.79737 4.91568 2.24849 7.64987C-2.29567 15.6675 0.216924 26.1404 8.25888 30.6627C14.3453 34.087 22.174 32.956 27.3034 28.8663C27.3199 28.8531 27.3364 28.8399 27.3529 28.8267C28.8754 27.5784 27.9216 25.1002 25.9561 25.2207Z" fill="white"/>
</svg>
